HIERARCHY
ROOT Hips
{
 OFFSET 0.000000 0.000000 0.000000
 CHANNELS 6 Xposition Yposition Zposition Yrotation Xrotation Zrotation
 JOINT Chest
 {
  OFFSET 0.000000 10.080317 -0.001081
  CHANNELS 3 Yrotation Xrotation Zrotation
  JOINT Chest2
  {
   OFFSET 0.000000 11.096852 0.001963
   CHANNELS 3 Yrotation Xrotation Zrotation
   JOINT Chest3
   {
    OFFSET 0.000000 10.026525 0.000000
    CHANNELS 3 Yrotation Xrotation Zrotation
    JOINT Chest4
    {
     OFFSET 0.000000 10.026525 0.000000
     CHANNELS 3 Yrotation Xrotation Zrotation
     JOINT Neck
     {
      OFFSET 0.000000 14.108171 0.000000
      CHANNELS 3 Yrotation Xrotation Zrotation
      JOINT Head
      {
       OFFSET 0.000000 9.333493 0.004668
       CHANNELS 3 Yrotation Xrotation Zrotation
       End Site
       {
        OFFSET 0.000000 17.851786 0.002438
       }
      }
     }
     JOINT RightCollar
     {
      OFFSET -3.071622 7.873185 0.000000
      CHANNELS 3 Yrotation Xrotation Zrotation
      JOINT RightShoulder
      {
       OFFSET -14.378659 0.000000 0.000000
       CHANNELS 3 Yrotation Xrotation Zrotation
       JOINT RightElbow
       {
        OFFSET -30.778728 0.000000 0.000000
        CHANNELS 3 Yrotation Xrotation Zrotation
        JOINT RightWrist
        {
         OFFSET -25.164217 0.000000 0.000000
         CHANNELS 3 Yrotation Xrotation Zrotation
         End Site
         {
          OFFSET -18.796788 0.000000 0.000000
         }
        }
       }
      }
     }
     JOINT LeftCollar
     {
      OFFSET 3.071622 7.873185 0.000000
      CHANNELS 3 Yrotation Xrotation Zrotation
      JOINT LeftShoulder
      {
       OFFSET 14.378659 0.000000 0.000000
       CHANNELS 3 Yrotation Xrotation Zrotation
       JOINT LeftElbow
       {
        OFFSET 30.778728 0.000000 0.000000
        CHANNELS 3 Yrotation Xrotation Zrotation
        JOINT LeftWrist
        {
         OFFSET 25.164217 0.000000 0.000000
         CHANNELS 3 Yrotation Xrotation Zrotation
         End Site
         {
          OFFSET 18.796788 0.000000 0.000000
         }
        }
       }
      }
     }
    }
   }
  }
 }
 JOINT RightHip
 {
  OFFSET -8.194923 0.005295 0.000540
  CHANNELS 3 Yrotation Xrotation Zrotation
  JOINT RightKnee
  {
   OFFSET 0.000000 -42.473320 -0.000511
   CHANNELS 3 Yrotation Xrotation Zrotation
   JOINT RightAnkle
   {
    OFFSET 0.000000 -41.474259 -0.000865
    CHANNELS 3 Yrotation Xrotation Zrotation
    JOINT RightToe
    {
     OFFSET 0.000000 -7.354994 16.712725
     CHANNELS 3 Yrotation Xrotation Zrotation
     End Site
     {
      OFFSET 0.000000 -1.553903 6.764158
     }
    }
   }
  }
 }
 JOINT LeftHip
 {
  OFFSET 8.194923 0.005295 0.000540
  CHANNELS 3 Yrotation Xrotation Zrotation
  JOINT LeftKnee
  {
   OFFSET 0.000000 -42.473320 -0.000511
   CHANNELS 3 Yrotation Xrotation Zrotation
   JOINT LeftAnkle
   {
    OFFSET 0.000000 -41.474259 -0.000865
    CHANNELS 3 Yrotation Xrotation Zrotation
    JOINT LeftToe
    {
     OFFSET 0.000000 -7.354994 16.712725
     CHANNELS 3 Yrotation Xrotation Zrotation
     End Site
     {
      OFFSET 0.000000 -1.553903 6.764158
     }
    }
   }
  }
 }
}
MOTION
Frames: 17
Frame Time: 0.016667
-216.557389 93.129875 114.130528 -7.416277 -0.858634 -1.194339 0.705542 4.547182 0.050960 0.313014 2.014287 -0.175853 0.313014 2.014287 -0.175853 0.235316 1.510626 -0.132908 -7.650008 18.660382 2.022503 -14.676624 -0.926831 6.150990 -4.697621 0.283243 8.295016 -2.780954 -0.211891 65.875726 31.331115 17.356515 17.761248 -3.449491 4.743155 -11.504747 -5.429044 -1.517714 -6.637880 -2.590384 -16.084293 -63.953732 -16.767022 19.378369 -17.187835 5.777599 4.891816 15.544842 -5.646478 -23.441166 -0.364941 -19.298807 49.662554 -24.150293 -13.305912 0.259189 -4.356010 0.561368 6.068357 -3.569988 -1.175983 4.556548 -1.039724 -2.468551 3.559261 -2.502087 5.721598 -5.546707 7.337545 -0.170671 -0.886148 -0.424253
-216.606682 92.961500 115.696987 -7.130617 -0.784447 -1.033017 0.593907 4.460690 0.100415 0.259692 1.993457 -0.125421 0.259692 1.993457 -0.125421 0.195159 1.495040 -0.094904 -6.824669 18.682828 1.834745 -13.104400 -1.004288 5.549339 -4.758887 0.266288 8.330393 -2.853974 -0.142151 65.615917 30.989989 17.376331 17.553249 -3.478546 4.769459 -11.513632 -5.587579 -1.636808 -6.797935 -2.382174 -16.982517 -63.553606 -17.754142 18.886854 -17.710943 5.685748 4.900340 15.727951 -6.713788 -24.564691 0.713646 -16.906959 46.364226 -20.612107 -13.474446 -0.134487 -4.271624 0.296449 6.216534 -4.421400 -1.790176 6.034690 -1.392790 -2.267527 2.514441 -2.452962 5.839439 -6.116699 7.551463 -0.192908 -0.756777 -0.438457
-216.626810 92.756728 117.250057 -7.019208 -0.595671 -0.891265 0.606390 4.264025 0.167346 0.231808 1.975714 -0.074493 0.231808 1.975714 -0.074493 0.174079 1.481757 -0.056614 -6.080181 18.670865 1.641351 -11.680488 -1.125355 4.963921 -4.797556 0.212419 8.362183 -2.883089 -0.093517 65.383500 30.502171 17.444699 17.206910 -3.511655 4.787264 -11.512825 -5.849562 -1.748528 -6.943677 -2.163092 -17.855153 -63.194263 -18.808949 18.492309 -18.209161 5.593273 4.939690 15.936541 -7.895377 -25.340616 1.749545 -14.147063 42.251830 -16.390420 -12.997743 -0.137171 -4.520203 0.115754 6.276948 -5.199506 -2.360748 7.345852 -1.742675 -1.948264 1.561940 -2.461166 5.947582 -6.730011 7.802914 -0.202915 -0.644067 -0.445118
-216.584155 92.514251 118.870438 -6.708444 -0.573268 -0.650397 0.500304 4.240935 0.140690 0.202206 1.957814 -0.027747 0.202206 1.957814 -0.027747 0.151728 1.468351 -0.021456 -5.435554 18.637430 1.446466 -10.439517 -1.266679 4.406887 -4.833804 0.156594 8.385408 -2.883300 -0.050619 65.210874 29.885119 17.564496 16.733534 -3.572537 4.802026 -11.532147 -5.996353 -1.835781 -7.056426 -1.867480 -18.661947 -62.970789 -19.801235 18.109200 -18.622339 5.520059 4.886860 16.182427 -8.988947 -25.580113 2.413729 -11.617068 37.759316 -12.085569 -12.129086 0.221244 -4.589270 -0.117091 6.125240 -5.886816 -3.140112 8.805956 -2.254522 -1.602486 0.663983 -2.496153 6.010906 -7.340147 8.081567 -0.187544 -0.582838 -0.425960
-216.500232 92.242098 120.484377 -6.512770 -0.565793 -0.391568 0.418245 4.192133 0.107396 0.189699 1.936742 0.011671 0.189699 1.936742 0.011671 0.142223 1.452560 0.008151 -4.871005 18.582944 1.256284 -9.346999 -1.431519 3.883488 -4.858866 0.104553 8.406758 -2.868793 -0.011982 65.070037 29.169980 17.748121 16.157175 -3.668226 4.833683 -11.534940 -6.177559 -1.916711 -7.185679 -1.614320 -19.303092 -62.784831 -20.752746 17.629105 -18.962221 5.403125 4.886690 16.414961 -10.330688 -25.432297 2.998480 -8.637991 32.753344 -7.550737 -11.398486 1.015838 -4.639992 -0.286213 5.939456 -6.456547 -4.065258 10.158168 -2.849246 -0.997872 -0.045557 -2.578722 5.997004 -7.990479 8.383452 -0.152111 -0.560259 -0.392386
-216.394853 91.934474 122.119206 -6.321126 -0.576812 -0.127707 0.349720 4.189197 0.088849 0.180870 1.919886 0.049399 0.180870 1.919886 0.049399 0.135485 1.439929 0.036478 -4.422421 18.478279 1.077909 -8.472561 -1.673266 3.420549 -4.829238 0.045095 8.388885 -2.854950 0.055349 64.939577 28.492321 17.934006 15.547230 -3.843954 4.884477 -11.495896 -6.306410 -1.998548 -7.279159 -1.269484 -19.836674 -62.710662 -21.591681 17.067225 -19.205502 5.316321 4.763812 16.674686 -11.770602 -24.977979 3.597984 -5.647718 27.350282 -3.481650 -10.839967 2.220073 -4.266234 -0.406197 5.770683 -6.969457 -4.890944 11.448058 -3.486650 -0.503753 -0.580205 -2.671065 6.056220 -8.692264 8.669466 -0.146238 -0.585176 -0.345226
-216.280025 91.605106 123.754506 -6.235421 -0.617169 0.192488 0.301259 4.164944 0.028749 0.195233 1.911316 0.078437 0.195233 1.911316 0.078437 0.146165 1.433512 0.058211 -4.053474 18.342241 0.906004 -7.746423 -1.962815 2.995130 -4.794659 -0.055888 8.377312 -2.817795 0.121652 64.793851 27.880209 18.110807 14.965842 -4.145139 4.965901 -11.425752 -6.433039 -2.140510 -7.377444 -1.016577 -20.206387 -62.682548 -22.314266 16.522335 -19.387771 5.205838 4.730835 16.876657 -13.001963 -24.220380 4.116937 -3.660636 21.531383 -0.527974 -9.860678 3.728840 -3.258747 -0.562211 5.722297 -7.481522 -5.715854 12.613923 -4.219905 0.097522 -0.837520 -2.788935 6.127422 -9.454318 8.919598 -0.137566 -0.676916 -0.286701
-216.152568 91.262020 125.445838 -6.128162 -0.781008 0.536730 0.261716 4.247339 -0.030753 0.197147 1.935056 0.107644 0.197147 1.935056 0.107644 0.147505 1.451327 0.080101 -3.762263 18.169163 0.737081 -7.164125 -2.312811 2.600681 -4.748100 -0.116422 8.331466 -2.842134 0.140196 64.607307 27.348667 18.310634 14.465366 -4.455620 5.129568 -11.301295 -6.478491 -2.261295 -7.441028 -0.632262 -20.462058 -62.753774 -23.060919 16.049466 -19.618085 5.143485 4.661480 17.088166 -13.962134 -23.145136 4.642451 -1.956813 15.654076 1.540280 -9.276285 5.111392 -1.913525 -0.607996 5.905084 -7.802521 -6.460289 13.804622 -5.028197 0.653426 -0.859160 -2.890601 6.181669 -10.265823 9.103332 -0.155325 -0.833083 -0.199672
-216.021580 90.919658 127.180068 -6.021434 -1.136582 0.863355 0.184550 4.386542 -0.080090 0.212544 1.977121 0.137210 0.212544 1.977121 0.137210 0.158948 1.482889 0.102209 -3.521368 17.968141 0.563215 -6.672116 -2.709708 2.213181 -4.701500 -0.211111 8.270424 -2.847464 0.160585 64.416343 26.877167 18.505324 14.081148 -4.768654 5.233912 -11.181890 -6.531345 -2.393137 -7.529205 -0.327069 -20.530813 -62.844425 -23.685324 15.614941 -19.803599 5.090782 4.635114 17.268104 -14.784554 -21.854069 5.158321 0.452765 10.230005 3.135129 -9.780292 5.911216 -0.804975 -0.422440 6.279478 -7.680659 -7.234835 15.053225 -5.846967 1.302659 -0.601232 -3.028504 6.158349 -11.076405 9.188488 -0.181292 -1.084059 -0.064330
-215.862838 90.581501 129.014271 -5.872076 -1.607879 1.157925 0.148387 4.656462 -0.115302 0.206591 2.033375 0.168575 0.206591 2.033375 0.168575 0.154366 1.525089 0.125731 -3.335015 17.744795 0.422808 -6.290817 -3.141438 1.904577 -4.610018 -0.260725 8.249894 -2.832054 0.155414 64.165710 26.519228 18.591244 13.759410 -4.963620 5.315446 -11.078088 -6.554032 -2.433237 -7.584746 0.057466 -20.512298 -62.925599 -24.285740 15.190822 -20.026548 5.047553 4.584411 17.449571 -14.744570 -20.321640 5.153957 2.406985 5.280003 4.423836 -10.604983 5.813139 0.004930 -0.377989 6.925559 -7.318218 -7.507423 16.374811 -6.525437 1.571921 -0.071347 -3.172708 6.025181 -11.850755 9.058190 -0.225886 -1.451062 0.191362
-215.694083 90.267678 130.939070 -5.830703 -2.075591 1.343348 0.212316 4.878843 -0.085888 0.215540 2.077307 0.202578 0.215540 2.077307 0.202578 0.160949 1.558052 0.151184 -3.183909 17.540129 0.295145 -5.976578 -3.534986 1.628673 -4.567014 -0.341595 8.283545 -2.811648 0.159464 63.905778 26.176131 18.602990 13.502968 -5.073346 5.370131 -10.997773 -6.648358 -2.414776 -7.647807 0.211833 -20.397139 -62.925955 -24.704175 14.888230 -20.259418 4.959678 4.555511 17.585940 -13.571943 -19.212514 4.793581 1.717829 2.232167 5.351997 -10.360019 4.849237 1.171370 -0.370122 7.297609 -7.362841 -7.516752 17.623830 -6.886251 1.686935 0.748772 -3.559332 5.867559 -12.575247 8.761099 -0.285538 -1.911350 0.577519
-215.494199 90.003998 132.965477 -5.849042 -2.429517 1.478850 0.368077 5.028759 -0.040370 0.218942 2.106793 0.241668 0.218942 2.106793 0.241668 0.163355 1.580182 0.180475 -3.056243 17.369463 0.182498 -5.708350 -3.862779 1.385514 -4.538834 -0.394108 8.354056 -2.819962 0.118758 63.665524 25.919054 18.605674 13.293697 -5.126559 5.402502 -10.976062 -6.696924 -2.315164 -7.679669 0.354801 -20.192773 -62.852356 -25.006009 14.696583 -20.530810 4.869540 4.542747 17.653259 -12.459451 -18.660489 4.512673 -0.481516 1.468207 5.613434 -8.829448 3.511905 3.220751 -0.500675 7.097352 -7.830807 -7.146738 18.642199 -7.002252 1.478575 1.983922 -4.034365 5.655703 -13.295022 8.204728 -0.345143 -3.655229 0.813076
-215.272089 89.791242 135.136825 -5.936544 -2.731063 1.591401 0.545584 5.105485 0.004573 0.242520 2.109347 0.277941 0.242520 2.109347 0.277941 0.180910 1.582121 0.207595 -2.942893 17.275084 0.067030 -5.462300 -4.047855 1.137716 -4.543010 -0.398737 8.436677 -2.820525 0.024050 63.470982 25.629235 18.523500 13.077122 -5.138650 5.417425 -10.975554 -6.694699 -2.206651 -7.674089 0.288740 -19.812839 -62.846714 -25.202314 14.680878 -20.711838 4.866839 4.588130 17.612158 -12.373304 -18.444164 4.527802 -1.464589 2.424339 5.148335 -7.534888 2.132339 4.858141 -0.520832 5.957361 -7.086764 -7.069503 19.446314 -7.012968 1.470654 3.586243 -4.719722 5.370094 -13.751771 7.404266 -0.355442 -5.744706 1.489620
-215.025676 89.609542 137.485967 -5.874569 -3.126405 1.666759 0.582363 5.230279 0.075753 0.247295 2.087742 0.298951 0.247295 2.087742 0.298951 0.184429 1.565928 0.223343 -2.832506 17.273929 -0.015660 -5.229862 -4.057668 0.947119 -4.515169 -0.319625 8.507411 -2.834691 -0.105341 63.369758 25.325106 18.396456 12.855934 -5.131159 5.416693 -10.999286 -6.537111 -2.060539 -7.592998 0.287829 -19.238004 -62.973827 -25.167241 14.934840 -20.836112 4.932942 4.590333 17.532709 -12.713529 -18.376634 4.599580 -1.013621 4.843439 4.267570 -7.600875 0.578117 4.854578 -0.439184 4.184191 -4.757230 -7.054089 20.162397 -6.877033 1.616441 5.687496 -5.524582 4.766443 -13.919424 6.353889 -0.473060 -8.345465 2.590432
-214.850271 89.452928 139.936191 -6.085028 -3.490206 1.506214 0.847679 5.306282 0.365367 0.287361 2.046577 0.312786 0.287361 2.046577 0.312786 0.214450 1.535081 0.233602 -2.721527 17.335537 -0.069182 -5.004698 -3.949277 0.807723 -4.555179 -0.324162 8.589531 -2.863526 -0.181974 63.355790 24.983792 18.287372 12.640454 -5.104115 5.404133 -11.024403 -6.377723 -1.957820 -7.478830 0.300219 -18.419907 -63.165067 -25.028966 15.246293 -20.876641 4.988782 4.622308 17.359697 -12.488956 -18.206598 4.899973 0.894783 6.975022 3.636719 -9.545377 -0.345862 3.315459 -0.379195 2.438183 -1.830527 -6.683998 20.690068 -6.222926 2.067377 8.302309 -6.567900 3.817849 -13.845122 4.996933 -0.777102 -11.398013 4.160044
-214.691925 89.364991 142.513706 -6.569629 -3.670559 1.094799 1.434313 5.199238 0.894890 0.302405 1.998932 0.335729 0.302405 1.998932 0.335729 0.225683 1.499366 0.250782 -2.603998 17.449043 -0.090998 -4.777250 -3.743118 0.722951 -4.540839 -0.417764 8.787416 -2.854249 -0.243327 63.297964 24.528462 18.168720 12.382681 -5.045002 5.379711 -11.073373 -6.097197 -1.775561 -7.429639 0.409075 -17.530588 -63.385764 -24.631790 15.574191 -20.792153 5.057926 4.635391 17.133401 -12.357536 -17.550580 5.803065 2.508569 8.377086 2.544703 -10.851923 -0.116907 1.405767 -0.205711 0.564256 0.972774 -5.333804 20.871601 -4.925830 2.067853 11.394592 -7.704524 2.876434 -13.295769 3.329790 -1.481234 -15.037486 6.188521
-214.510745 89.377503 145.292968 -6.911573 -4.282979 0.547494 1.756146 5.402448 1.474244 0.330793 1.967516 0.396124 0.330793 1.967516 0.396124 0.246795 1.475852 0.295999 -2.452412 17.618722 -0.104667 -4.488810 -3.433063 0.640136 -4.406324 -0.306203 9.029094 -2.772925 -0.563247 63.186445 23.890885 17.987883 12.067913 -4.961697 5.331344 -11.112438 -5.713247 -1.391358 -7.363752 0.601596 -16.731570 -63.835989 -23.916451 15.920306 -20.505945 5.110523 4.663084 16.910924 -13.086025 -16.880727 6.423939 3.911790 11.085088 1.786973 -11.044595 0.156287 0.427290 -0.084902 -1.491844 2.671012 -4.390354 21.115846 -3.347579 2.318678 15.004380 -9.165034 1.764351 -11.789455 1.460129 -2.441645 -19.678280 8.755825
